<svg width="48" height="48" viewBox="0 0 48 48" fill="none" xmlns="http://www.w3.org/2000/svg">
<mask id="path-1-inside-1" fill="white">
<path d="M0 9C0 6.79086 1.79086 5 4 5H44C46.2091 5 48 6.79086 48 9V24C48 25.1046 47.1046 26 46 26H2C0.895431 26 0 25.1046 0 24V9Z"/>
</mask>
<path d="M0 9C0 6.79086 1.79086 5 4 5H44C46.2091 5 48 6.79086 48 9V24C48 25.1046 47.1046 26 46 26H2C0.895431 26 0 25.1046 0 24V9Z" stroke="#152C5B" stroke-width="6" mask="url(#path-1-inside-1)"/>
<path d="M28 13L20 13" stroke="#FF4988" stroke-width="3" stroke-linecap="round"/>
<path d="M39.7519 42.8321C40.2115 43.5213 41.1428 43.7076 41.8321 43.2481C42.5213 42.7885 42.7076 41.8572 42.2481 41.1679L39.7519 42.8321ZM42.2481 30.8321C42.7076 30.1428 42.5213 29.2115 41.8321 28.7519C41.1428 28.2924 40.2115 28.4787 39.7519 29.1679L42.2481 30.8321ZM40.698 41.547L39.4499 42.3791L40.698 41.547ZM42.2481 41.1679L41.9461 40.715L39.4499 42.3791L39.7519 42.8321L42.2481 41.1679ZM41.9461 31.285L42.2481 30.8321L39.7519 29.1679L39.4499 29.6209L41.9461 31.285ZM41.9461 40.715C40.0426 37.8598 40.0426 34.1402 41.9461 31.285L39.4499 29.6209C36.8747 33.4838 36.8747 38.5162 39.4499 42.3791L41.9461 40.715Z" fill="#152C5B"/>
<path d="M33.7519 42.8321C34.2115 43.5213 35.1428 43.7076 35.8321 43.2481C36.5213 42.7885 36.7076 41.8572 36.2481 41.1679L33.7519 42.8321ZM36.2481 30.8321C36.7076 30.1428 36.5213 29.2115 35.8321 28.7519C35.1428 28.2924 34.2115 28.4787 33.7519 29.1679L36.2481 30.8321ZM34.698 41.547L33.4499 42.3791L34.698 41.547ZM36.2481 41.1679L35.9461 40.715L33.4499 42.3791L33.7519 42.8321L36.2481 41.1679ZM35.9461 31.285L36.2481 30.8321L33.7519 29.1679L33.4499 29.6209L35.9461 31.285ZM35.9461 40.715C34.0426 37.8598 34.0426 34.1402 35.9461 31.285L33.4499 29.6209C30.8747 33.4838 30.8747 38.5162 33.4499 42.3791L35.9461 40.715Z" fill="#152C5B"/>
<path d="M8.24808 42.8321C7.78855 43.5213 6.85724 43.7076 6.16795 43.2481C5.47866 42.7885 5.2924 41.8572 5.75192 41.1679L8.24808 42.8321ZM5.75192 30.8321C5.2924 30.1428 5.47866 29.2115 6.16795 28.7519C6.85724 28.2924 7.78855 28.4787 8.24808 29.1679L5.75192 30.8321ZM7.302 41.547L8.55007 42.3791L7.302 41.547ZM5.75192 41.1679L6.05392 40.715L8.55007 42.3791L8.24808 42.8321L5.75192 41.1679ZM6.05392 31.285L5.75192 30.8321L8.24808 29.1679L8.55007 29.6209L6.05392 31.285ZM6.05392 40.715C7.95735 37.8598 7.95735 34.1402 6.05392 31.285L8.55007 29.6209C11.1253 33.4838 11.1253 38.5162 8.55007 42.3791L6.05392 40.715Z" fill="#152C5B"/>
<path d="M14.2481 42.8321C13.7885 43.5213 12.8572 43.7076 12.1679 43.2481C11.4787 42.7885 11.2924 41.8572 11.7519 41.1679L14.2481 42.8321ZM11.7519 30.8321C11.2924 30.1428 11.4787 29.2115 12.1679 28.7519C12.8572 28.2924 13.7885 28.4787 14.2481 29.1679L11.7519 30.8321ZM13.302 41.547L14.5501 42.3791L13.302 41.547ZM11.7519 41.1679L12.0539 40.715L14.5501 42.3791L14.2481 42.8321L11.7519 41.1679ZM12.0539 31.285L11.7519 30.8321L14.2481 29.1679L14.5501 29.6209L12.0539 31.285ZM12.0539 40.715C13.9574 37.8598 13.9574 34.1402 12.0539 31.285L14.5501 29.6209C17.1253 33.4838 17.1253 38.5162 14.5501 42.3791L12.0539 40.715Z" fill="#152C5B"/>
<path d="M46 20L2 20" stroke="#152C5B" stroke-width="3" stroke-linecap="round"/>
</svg>
