<svg width="48" height="48" viewBox="0 0 48 48" fill="none" xmlns="http://www.w3.org/2000/svg">
<path d="M7.5 10C7.5 5.30558 11.3056 1.5 16 1.5H32C36.6944 1.5 40.5 5.30558 40.5 10V27.5H7.5V10Z" stroke="#152C5B" stroke-width="3"/>
<rect x="12.5" y="18.5" width="9" height="9" rx="2.5" stroke="#FF4988" stroke-width="3"/>
<rect x="25.5" y="18.5" width="9" height="9" rx="2.5" stroke="#FF4988" stroke-width="3"/>
<mask id="path-4-inside-1" fill="white">
<path d="M0 30C0 27.7909 1.79086 26 4 26H44C46.2091 26 48 27.7909 48 30V38C48 39.1046 47.1046 40 46 40H2C0.895431 40 0 39.1046 0 38V30Z"/>
</mask>
<path d="M0 30C0 27.7909 1.79086 26 4 26H44C46.2091 26 48 27.7909 48 30V38C48 39.1046 47.1046 40 46 40H2C0.895431 40 0 39.1046 0 38V30Z" stroke="#152C5B" stroke-width="6" mask="url(#path-4-inside-1)"/>
<path d="M5 39L5 47" stroke="#152C5B" stroke-width="3" stroke-linecap="round"/>
<path d="M42 43H6" stroke="#152C5B" stroke-width="3" stroke-linecap="round"/>
<path d="M42 39L42 47" stroke="#152C5B" stroke-width="3" stroke-linecap="round"/>
</svg>
