<svg width="48" height="48" viewBox="0 0 48 48" fill="none" xmlns="http://www.w3.org/2000/svg">
<path d="M31.5 39.5C31.5 40.9965 30.2907 42.7292 27.4803 44.1769C24.7474 45.5848 20.8676 46.5 16.5 46.5C12.1324 46.5 8.25255 45.5848 5.51967 44.1769C2.70933 42.7292 1.5 40.9965 1.5 39.5C1.5 38.0035 2.70933 36.2708 5.51967 34.8231C8.25255 33.4152 12.1324 32.5 16.5 32.5C20.8676 32.5 24.7474 33.4152 27.4803 34.8231C30.2907 36.2708 31.5 38.0035 31.5 39.5Z" stroke="#152C5B" stroke-width="3"/>
<path d="M28.5 13.2414C28.5 16.6318 27.0595 23.1165 24.6644 28.7787C23.4724 31.5969 22.0861 34.1075 20.6027 35.8868C19.0851 37.7072 17.6917 38.5 16.5 38.5C15.3083 38.5 13.9149 37.7072 12.3973 35.8868C10.9139 34.1075 9.52763 31.5969 8.33555 28.7787C5.94046 23.1165 4.5 16.6318 4.5 13.2414C4.5 6.78401 9.8451 1.5 16.5 1.5C23.1549 1.5 28.5 6.78401 28.5 13.2414Z" fill="white" stroke="#152C5B" stroke-width="3"/>
<circle cx="17" cy="15" r="4.5" stroke="#FF4988" stroke-width="3"/>
</svg>
