<svg width="48" height="48" viewBox="0 0 48 48" fill="none" xmlns="http://www.w3.org/2000/svg">
<mask id="path-1-inside-1" fill="white">
<path fill-rule="evenodd" clip-rule="evenodd" d="M19.2361 9C18.4785 9 17.786 9.428 17.4472 10.1056L16 13H8C3.58172 13 0 16.5817 0 21V35C0 39.4183 3.58172 43 8 43H40C44.4183 43 48 39.4183 48 35V21C48 16.5817 44.4183 13 40 13H32L30.5528 10.1056C30.214 9.428 29.5215 9 28.7639 9H19.2361Z"/>
</mask>
<path d="M17.4472 10.1056L20.1305 11.4472L20.1305 11.4472L17.4472 10.1056ZM16 13V16H17.8541L18.6833 14.3416L16 13ZM32 13L29.3167 14.3416L30.1459 16H32V13ZM30.5528 10.1056L27.8695 11.4472L27.8695 11.4472L30.5528 10.1056ZM20.1305 11.4472C19.9611 11.786 19.6148 12 19.2361 12V6C17.3422 6 15.6109 7.07001 14.7639 8.76393L20.1305 11.4472ZM18.6833 14.3416L20.1305 11.4472L14.7639 8.76393L13.3167 11.6584L18.6833 14.3416ZM8 16H16V10H8V16ZM3 21C3 18.2386 5.23858 16 8 16V10C1.92487 10 -3 14.9249 -3 21H3ZM3 35V21H-3V35H3ZM8 40C5.23858 40 3 37.7614 3 35H-3C-3 41.0751 1.92487 46 8 46V40ZM40 40H8V46H40V40ZM45 35C45 37.7614 42.7614 40 40 40V46C46.0751 46 51 41.0751 51 35H45ZM45 21V35H51V21H45ZM40 16C42.7614 16 45 18.2386 45 21H51C51 14.9249 46.0751 10 40 10V16ZM32 16H40V10H32V16ZM27.8695 11.4472L29.3167 14.3416L34.6833 11.6584L33.2361 8.76393L27.8695 11.4472ZM28.7639 12C28.3852 12 28.0389 11.786 27.8695 11.4472L33.2361 8.76393C32.3891 7.07001 30.6578 6 28.7639 6V12ZM19.2361 12H28.7639V6H19.2361V12Z" fill="#152C5B" mask="url(#path-1-inside-1)"/>
<circle cx="24" cy="26" r="6.5" stroke="#FF4988" stroke-width="3"/>
<path d="M41 19H33" stroke="#152C5B" stroke-width="3" stroke-linecap="round"/>
</svg>
