<svg width="48" height="47" viewBox="0 0 48 47" fill="none" xmlns="http://www.w3.org/2000/svg">
<path d="M6 13C10.6317 8.07521 17.2068 5 24.5 5C31.7932 5 38.3683 8.07521 43 13" stroke="#152C5B" stroke-width="3" stroke-linecap="round"/>
<path d="M9 22C12.7555 18.3064 18.0866 16 24 16C29.9134 16 35.2445 18.3064 39 22" stroke="#152C5B" stroke-width="3" stroke-linecap="round"/>
<path d="M13 31C15.8792 27.922 19.9664 26 24.5 26C29.0336 26 33.1208 27.922 36 31" stroke="#152C5B" stroke-width="3" stroke-linecap="round"/>
<path d="M28.5 39.7551C28.5 42.0468 26.5448 44.0102 24 44.0102C21.4552 44.0102 19.5 42.0468 19.5 39.7551C19.5 37.4634 21.4552 35.5 24 35.5C26.5448 35.5 28.5 37.4634 28.5 39.7551Z" stroke="#FF4988" stroke-width="3"/>
</svg>
